<svg xmlns="http://www.w3.org/2000/svg" xmlns:xlink="http://www.w3.org/1999/xlink" version="1.1" x="0px" y="0px" viewBox="0 0 160 200" style="enable-background:new 0 0 160 160;" xml:space="preserve"><path d="M59.268,20.307v0.431h-3.184c-2.229,0-4.041,1.813-4.041,4.041v1.364h-2.738c-2.493,0-4.521,2.028-4.521,4.521v3.454  c0,2.493,2.028,4.521,4.521,4.521h2.738v1.364c0,2.228,1.813,4.041,4.041,4.041h3.184v0.431c0,2.141,1.742,3.883,3.883,3.883h6.916  c2.141,0,3.883-1.742,3.883-3.883v-5.836h12.716v5.836c0,2.141,1.742,3.883,3.883,3.883h6.915c2.141,0,3.883-1.742,3.883-3.883  v-0.431h3.185c2.229,0,4.041-1.813,4.041-4.041v-1.364h2.737c2.493,0,4.521-2.028,4.521-4.521v-3.454  c0-2.493-2.028-4.521-4.521-4.521h-2.737v-1.364c0-2.228-1.813-4.041-4.041-4.041h-3.185v-0.431c0-2.141-1.742-3.883-3.883-3.883  h-6.915c-2.141,0-3.883,1.742-3.883,3.883v5.836H73.95v-5.836c0-2.141-1.742-3.883-3.883-3.883h-6.916  C61.01,16.424,59.268,18.166,59.268,20.307z M68.95,43.359h-4.682v-3.355V24.779v-3.355h4.682V43.359z M103.572,39.045h-2.226  V25.738h2.226V39.045z M108.572,31.143h2.259v2.497h-2.259V31.143z M96.346,21.424v3.355v15.225v3.355h-4.681V21.424H96.346z   M86.666,33.639H73.95v-2.497h12.716V33.639z M57.044,25.738h2.225v13.307h-2.225V25.738z M52.044,33.639h-2.26v-2.497h2.26V33.639z  "/><path d="M151.362,138.381h-4.939V45.489h4.502c1.933,0,3.5-1.567,3.5-3.5V22.794c0-1.933-1.567-3.5-3.5-3.5h-22.572V8.543  c0-1.933-1.567-3.5-3.5-3.5H35.06c-1.933,0-3.5,1.567-3.5,3.5v10.751H8.761c-1.933,0-3.5,1.567-3.5,3.5v19.194  c0,1.933,1.567,3.5,3.5,3.5h4.502v92.892H8.638c-1.933,0-3.5,1.567-3.5,3.5v9.576c0,1.933,1.567,3.5,3.5,3.5h142.724  c1.933,0,3.5-1.567,3.5-3.5v-9.576C154.862,139.948,153.295,138.381,151.362,138.381z M147.425,26.294v12.194h-4.502h-14.57V26.294  H147.425z M121.352,12.043v40.361H38.56V12.043H121.352z M12.261,26.294H31.56v12.194H16.763h-4.502V26.294z M20.263,45.489H31.56  v10.416c0,1.933,1.567,3.5,3.5,3.5h89.792c1.933,0,3.5-1.567,3.5-3.5V45.489h11.07v92.892h-7.038v-37.322V73.012  c0-4.191-3.41-7.602-7.602-7.602h-19.095h-68.39c-4.191,0-7.602,3.41-7.602,7.602v65.369h-9.434V45.489z M108.188,70.41h16.595  c1.435,0,2.602,1.167,2.602,2.602v8.972h-19.196V70.41z M127.385,98.558h-19.196V86.984h19.196V98.558z M108.188,138.381v-34.822  h19.196v34.822H108.188z M103.188,101.058v37.322H34.697V73.012c0-1.435,1.167-2.602,2.602-2.602h65.89V101.058z M147.862,147.957  H12.138v-2.576h4.625h126.16h4.939V147.957z"/><path d="M112.385,116.744c-1.381,0-2.5,1.119-2.5,2.5v4.072c0,1.381,1.119,2.5,2.5,2.5s2.5-1.119,2.5-2.5v-4.072  C114.885,117.863,113.765,116.744,112.385,116.744z"/><path d="M40.385,86.984c0.644,0,1.287-0.247,1.775-0.74l8.5-8.573c0.972-0.98,0.965-2.563-0.016-3.535  c-0.979-0.971-2.562-0.965-3.535,0.016l-8.5,8.573c-0.972,0.98-0.965,2.563,0.015,3.535C39.112,86.743,39.748,86.984,40.385,86.984z  "/><path d="M39.589,101.427c0.488,0.483,1.124,0.725,1.76,0.725c0.644,0,1.287-0.247,1.775-0.74l23.536-23.74  c0.972-0.98,0.965-2.563-0.016-3.535c-0.979-0.971-2.563-0.965-3.535,0.016l-23.536,23.74  C38.601,98.872,38.608,100.455,39.589,101.427z"/><path d="M75.052,135.854c0.644,0,1.287-0.247,1.775-0.74l13.162-13.277c0.972-0.98,0.965-2.563-0.016-3.535  c-0.979-0.972-2.563-0.965-3.535,0.016l-13.162,13.277c-0.972,0.98-0.965,2.563,0.016,3.535  C73.78,135.613,74.416,135.854,75.052,135.854z"/><path d="M94.354,116.385c0.644,0,1.287-0.247,1.775-0.74l4.233-4.271c0.972-0.98,0.965-2.563-0.016-3.535  c-0.979-0.972-2.563-0.965-3.535,0.016l-4.233,4.271c-0.972,0.98-0.965,2.563,0.016,3.535  C93.082,116.143,93.718,116.385,94.354,116.385z"/><path d="M93.164,126.891l-4.233,4.271c-0.972,0.98-0.965,2.563,0.016,3.535c0.487,0.483,1.123,0.725,1.76,0.725  c0.644,0,1.287-0.247,1.775-0.74l4.233-4.271c0.972-0.98,0.965-2.563-0.016-3.535C95.72,125.904,94.136,125.911,93.164,126.891z"/></svg>
