<svg xmlns="http://www.w3.org/2000/svg" version="1.1" viewBox="-5.0 -10.0 110.0 135.0">
 <path d="m72.477 54.41c0.99219 0.26953 1.957 0.66406 2.875 1.1797l1.8086 1.0195c0.98438 0.55469 2.1875 0.55469 3.1719 0l1.8086-1.0195c3.8398-2.1641 8.5352-2.1641 12.375 0l2.5703 1.4492v-4.5273s-8.2539 1.6914-17.238-3.418c-0.007812 0.023438-0.019531 0.050781-0.027344 0.074219-0.89453 2.5078-2.7109 4.6641-6.0391 5.1445-0.37891 0.054688-0.82031 0.074219-1.3086 0.058594l-0.007812 0.042968zm-18.793-15.848c-0.074219-0.86719-0.070313-1.7656 0.027344-2.6992l-15.762-12.398c-2.0742-1.6328-4.9336-1.8477-7.2305-0.54297-6.4141 3.6406-18.699 10.617-18.699 10.617s-2.4531 0.18359-4.5547 0.34375c-1.6953 0.12891-3.043 1.4727-3.1797 3.168-0.10547 1.3164-0.22266 2.8398-0.32031 4.0469-0.042969 0.54688 0.15234 1.0859 0.53516 1.4766 0.38281 0.39453 0.91406 0.60156 1.4609 0.57422 1.7891-0.089844 4.0391-0.20313 4.0391-0.20313s0.082031 1.1016 0.17578 2.3789c0.039063 0.55078 0.42969 1.0117 0.96484 1.1445s1.0977-0.09375 1.3906-0.55859c1.3906-2.2148 2.9727-4.7305 2.9727-4.7305l18.078-8.6289c1.457 4.1367 2.8594 6.6328 4.4609 8.8164l0.26562-0.17188c0.96484-0.61719 2.1875-0.65625 3.1914-0.10547 5.9023 3.25 10.254-0.34375 12.18-2.5352z" fill-rule="evenodd"/>
 <path d="m19.871 56.715c0.94141 0.44531 2.0469 0.41016 2.9648-0.10938l1.8086-1.0195c3.8398-2.1641 8.5352-2.1641 12.375 0l1.8086 1.0195c0.98438 0.55469 2.1875 0.55469 3.1719 0l1.8086-1.0195c3.8398-2.1641 8.5352-2.1641 12.375 0l1.8086 1.0195c0.98437 0.55469 2.1875 0.55469 3.1719 0l1.8086-1.0195c1.9883-1.1211 4.2031-1.6602 6.4141-1.6211l0.003906-0.039063c-2.2305-0.51953-4.8203-1.5078-7.2305-3.0078-3.332-2.0703-6.2852-5.0547-7.6797-8.7969-2.9648 2.6172-8.0234 5.2695-14.488 1.7109l-20.125 12.883z" fill-rule="evenodd"/>
 <path d="m79.848 36.496c0.16016 1.6758 0.042969 3.2656-0.1875 4.8203l-2.3125 1.9648s0.9375 7.2188-4 7.9297c-4.1016 0.59375-16.871-4.4297-16.582-14.16 0.19141 0.03125 0.38672 0.046875 0.58594 0.039063l21.969-0.53906c0.17969-0.003906 0.35547-0.023437 0.52734-0.058593z" fill-rule="evenodd"/>
 <path d="m79.238 33.434c-1.6484-5.2383-6.3125-9.0391-12.418-9.0391-6.1055 0-9.3398 4.3398-9.5508 9.5781z" fill-rule="evenodd"/>
 <path d="m2.8516 64.242s3.0391-1.7109 5.6953-3.207c1.9375-1.0898 4.3047-1.0898 6.2422 0 0.59766 0.33594 1.2109 0.68359 1.8086 1.0195 2.8906 1.6289 6.418 1.6289 9.3086 0l1.8086-1.0195c1.9375-1.0898 4.3047-1.0898 6.2422 0 0.59766 0.33594 1.2109 0.68359 1.8086 1.0195 2.8906 1.6289 6.418 1.6289 9.3086 0l1.8086-1.0195c1.9375-1.0898 4.3047-1.0898 6.2422 0 0.59766 0.33594 1.2109 0.68359 1.8086 1.0195 2.8906 1.6289 6.418 1.6289 9.3086 0l1.8086-1.0195c1.9375-1.0898 4.3047-1.0898 6.2422 0 0.59766 0.33594 1.2109 0.68359 1.8086 1.0195 2.8906 1.6289 6.418 1.6289 9.3086 0l1.8086-1.0195c1.9375-1.0898 4.3047-1.0898 6.2422 0 2.6562 1.4961 5.6953 3.207 5.6953 3.207 0.75 0.42187 1.707 0.15625 2.1289-0.59375s0.15625-1.707-0.59375-2.1289c0 0-3.0391-1.7109-5.6953-3.207-2.8906-1.6289-6.418-1.6289-9.3086 0l-1.8086 1.0195c-1.9375 1.0898-4.3047 1.0898-6.2422 0-0.59766-0.33594-1.2109-0.68359-1.8086-1.0195-2.8906-1.6289-6.418-1.6289-9.3086 0l-1.8086 1.0195c-1.9375 1.0898-4.3047 1.0898-6.2422 0-0.59766-0.33594-1.2109-0.68359-1.8086-1.0195-2.8906-1.6289-6.418-1.6289-9.3086 0l-1.8086 1.0195c-1.9375 1.0898-4.3047 1.0898-6.2422 0-0.59766-0.33594-1.2109-0.68359-1.8086-1.0195-2.8906-1.6289-6.418-1.6289-9.3086 0l-1.8086 1.0195c-1.9375 1.0898-4.3047 1.0898-6.2422 0-0.59766-0.33594-1.2109-0.68359-1.8086-1.0195-2.8906-1.6289-6.418-1.6289-9.3086 0-2.6562 1.4961-5.6953 3.207-5.6953 3.207-0.75 0.42188-1.0195 1.3789-0.59375 2.1289 0.42188 0.75391 1.3789 1.0195 2.1289 0.59375z" fill-rule="evenodd"/>
 <path d="m2.8516 70.984s3.0391-1.7109 5.6953-3.207c1.9375-1.0898 4.3047-1.0898 6.2422 0 0.59766 0.33594 1.2109 0.68359 1.8086 1.0195 2.8906 1.6289 6.418 1.6289 9.3086 0l1.8086-1.0195c1.9375-1.0898 4.3047-1.0898 6.2422 0 0.59766 0.33594 1.2109 0.68359 1.8086 1.0195 2.8906 1.6289 6.418 1.6289 9.3086 0l1.8086-1.0195c1.9375-1.0898 4.3047-1.0898 6.2422 0 0.59766 0.33594 1.2109 0.68359 1.8086 1.0195 2.8906 1.6289 6.418 1.6289 9.3086 0l1.8086-1.0195c1.9375-1.0898 4.3047-1.0898 6.2422 0 0.59766 0.33594 1.2109 0.68359 1.8086 1.0195 2.8906 1.6289 6.418 1.6289 9.3086 0l1.8086-1.0195c1.9375-1.0898 4.3047-1.0898 6.2422 0 2.6562 1.4961 5.6953 3.207 5.6953 3.207 0.75 0.42188 1.707 0.15625 2.1289-0.59375s0.15625-1.707-0.59375-2.1289c0 0-3.0391-1.7109-5.6953-3.207-2.8906-1.6289-6.418-1.6289-9.3086 0l-1.8086 1.0195c-1.9375 1.0898-4.3047 1.0898-6.2422 0-0.59766-0.33594-1.2109-0.68359-1.8086-1.0195-2.8906-1.6289-6.418-1.6289-9.3086 0l-1.8086 1.0195c-1.9375 1.0898-4.3047 1.0898-6.2422 0-0.59766-0.33594-1.2109-0.68359-1.8086-1.0195-2.8906-1.6289-6.418-1.6289-9.3086 0l-1.8086 1.0195c-1.9375 1.0898-4.3047 1.0898-6.2422 0-0.59766-0.33594-1.2109-0.68359-1.8086-1.0195-2.8906-1.6289-6.418-1.6289-9.3086 0l-1.8086 1.0195c-1.9375 1.0898-4.3047 1.0898-6.2422 0-0.59766-0.33594-1.2109-0.68359-1.8086-1.0195-2.8906-1.6289-6.418-1.6289-9.3086 0-2.6562 1.4961-5.6953 3.207-5.6953 3.207-0.75 0.42188-1.0195 1.3789-0.59375 2.1289 0.42188 0.75 1.3789 1.0195 2.1289 0.59375z" fill-rule="evenodd"/>
 <path d="m2.8516 77.727s3.0391-1.7109 5.6953-3.207c1.9375-1.0898 4.3047-1.0898 6.2422 0 0.59766 0.33594 1.2109 0.68359 1.8086 1.0195 2.8906 1.6289 6.418 1.6289 9.3086 0l1.8086-1.0195c1.9375-1.0898 4.3047-1.0898 6.2422 0 0.59766 0.33594 1.2109 0.68359 1.8086 1.0195 2.8906 1.6289 6.418 1.6289 9.3086 0l1.8086-1.0195c1.9375-1.0898 4.3047-1.0898 6.2422 0 0.59766 0.33594 1.2109 0.68359 1.8086 1.0195 2.8906 1.6289 6.418 1.6289 9.3086 0l1.8086-1.0195c1.9375-1.0898 4.3047-1.0898 6.2422 0 0.59766 0.33594 1.2109 0.68359 1.8086 1.0195 2.8906 1.6289 6.418 1.6289 9.3086 0l1.8086-1.0195c1.9375-1.0898 4.3047-1.0898 6.2422 0 2.6562 1.4961 5.6953 3.207 5.6953 3.207 0.75 0.42578 1.707 0.15625 2.1289-0.59375 0.42188-0.75391 0.15625-1.707-0.59375-2.1289 0 0-3.0391-1.7109-5.6953-3.207-2.8906-1.6289-6.418-1.6289-9.3086 0l-1.8086 1.0195c-1.9375 1.0898-4.3047 1.0898-6.2422 0-0.59766-0.33594-1.2109-0.68359-1.8086-1.0195-2.8906-1.6289-6.418-1.6289-9.3086 0l-1.8086 1.0195c-1.9375 1.0898-4.3047 1.0898-6.2422 0-0.59766-0.33594-1.2109-0.68359-1.8086-1.0195-2.8906-1.6289-6.418-1.6289-9.3086 0l-1.8086 1.0195c-1.9375 1.0898-4.3047 1.0898-6.2422 0-0.59766-0.33594-1.2109-0.68359-1.8086-1.0195-2.8906-1.6289-6.418-1.6289-9.3086 0l-1.8086 1.0195c-1.9375 1.0898-4.3047 1.0898-6.2422 0-0.59766-0.33594-1.2109-0.68359-1.8086-1.0195-2.8906-1.6289-6.418-1.6289-9.3086 0-2.6562 1.4961-5.6953 3.207-5.6953 3.207-0.75 0.42188-1.0195 1.375-0.59375 2.1289 0.42188 0.75 1.3789 1.0195 2.1289 0.59375z" fill-rule="evenodd"/>
</svg>
